HIERARCHY
ROOT Hips
{
  OFFSET -0.336918 92.138 259.118
  CHANNELS 6 Xposition Yposition Zposition Zrotation Xrotation Yrotation
  JOINT Spine
  {
    OFFSET -0.000355721 21.3001 -0.016921
    CHANNELS 3 Zrotation Xrotation Yrotation
    JOINT LeftArm
    {
      OFFSET 13.5181 21.3012 0
      CHANNELS 3 Zrotation Xrotation Yrotation
      JOINT LeftForeArm
      {
        OFFSET 24.5783 0 0
        CHANNELS 3 Zrotation Xrotation Yrotation
        JOINT LeftHand
        {
          OFFSET 24.5783 0 0
          CHANNELS 3 Zrotation Xrotation Yrotation
          End Site
          {
            OFFSET 7.32568 1.52588e-05 0.0169305
          }
        }
      }
    }
    JOINT Head
    {
      OFFSET 0 27.4458 -0.00489235
      CHANNELS 3 Zrotation Xrotation Yrotation
      End Site
      {
        OFFSET 0 0 0
      }
    }
    JOINT RightArm
    {
      OFFSET -13.5174 21.3012 0
      CHANNELS 3 Zrotation Xrotation Yrotation
      JOINT RightForeArm
      {
        OFFSET -24.5783 0 0
        CHANNELS 3 Zrotation Xrotation Yrotation
        JOINT RightHand
        {
          OFFSET -24.5783 0 0
          CHANNELS 3 Zrotation Xrotation Yrotation
          End Site
          {
            OFFSET -7.32568 1.52588e-05 0.0169305
          }
        }
      }
    }
  }
  JOINT RightUpLeg
  {
    OFFSET -8.44614 -9.41038 0.835684
    CHANNELS 3 Zrotation Xrotation Yrotation
    JOINT RightLeg
    {
      OFFSET 0 -40.9639 0
      CHANNELS 3 Zrotation Xrotation Yrotation
      JOINT RightFoot
      {
        OFFSET 0 -40.9639 0
        CHANNELS 3 Zrotation Xrotation Yrotation
        End Site
        {
          OFFSET 0.50614 -9.67405 14.6709
        }
      }
    }
  }
  JOINT LeftUpLeg
  {
    OFFSET 8.44614 -9.41038 0.835684
    CHANNELS 3 Zrotation Xrotation Yrotation
    JOINT LeftLeg
    {
      OFFSET 0 -40.9639 0
      CHANNELS 3 Zrotation Xrotation Yrotation
      JOINT LeftFoot
      {
        OFFSET 0 -40.9639 0
        CHANNELS 3 Zrotation Xrotation Yrotation
        End Site
        {
          OFFSET -0.50614 -9.67405 14.6709
        }
      }
    }
  }
}
MOTION
Frames:	25
Frame Time:	0.0333333
-0.336101 92.1366 -1.26143 4.55713 0.657694 -0.0319233 -3.21428 5.01039 -0.435566 -48.6498 57.8032 -13.2731 -0.00247382 2.40359e-05 -47.757 4.1837 -41.499 -7.6875 -1.01976 -9.95082 2.64449 70.1551 33.7569 8.11223 -0.000174296 -4.07054e-06 13.1425 5.09645 -22.5592 -10.9463 -10.6568 -26.6869 -19.2154 -22.373 61.6744 15.9761 -0.0423145 -36.7011 -0.513033 -4.71837 -10.2254 29.0497 9.01572 28.6006 -13.857 -6.792 -50.6248 -4.67957 
-0.556691 92.3668 3.02199 4.30872 1.17772 0.800423 -2.89793 5.0722 -0.952545 -47.1936 56.6306 -14.3445 -0.00247227 2.2217e-05 -51.5815 7.37937 -37.9775 -7.28993 -0.887993 -11.1256 0.311228 70.2815 35.0169 8.40518 -0.000174193 -4.04522e-06 14.5901 5.69205 -25.0018 -11.7457 -10.3252 -29.8043 -21.7131 -18.568 55.0858 14.4696 0.37592 -38.4471 -0.439506 -4.54264 -5.96405 27.2595 6.81945 25.4569 -12.6563 -7.71903 -51.5777 -4.34657 
-0.78729 92.5054 7.30247 4.02625 1.74554 1.62668 -2.60066 5.07489 -1.37021 -45.7691 55.5209 -15.3422 -0.00247094 2.04204e-05 -55.1695 10.7985 -34.8543 -6.84831 -0.887494 -12.6635 -1.89486 70.493 36.1391 8.68665 -0.000174089 -4.01669e-06 16.0698 6.08854 -26.9771 -12.6501 -9.4425 -32.6136 -24.082 -15.6786 47.5408 13.7873 1.34145 -40.1813 -0.270093 -4.44454 -1.27122 25.7529 4.93087 21.0232 -11.7314 -9.58288 -51.7651 -4.32007 
-1.03092 92.4146 11.569 3.71272 2.32957 2.44711 -2.32616 4.96354 -1.58512 -44.3604 54.5467 -16.3826 -0.00246998 1.89696e-05 -57.9558 14.2861 -32.7761 -6.41573 -1.0562 -14.4132 -3.66149 71.0918 36.7332 9.37484 -0.000174115 -4.02403e-06 15.7022 6.68491 -27.8073 -12.5491 -7.73697 -34.6489 -26.0726 -13.3648 38.1308 12.8959 3.06031 -41.9817 -0.00249185 -4.7432 3.9838 25.0077 3.89177 14.9237 -10.9822 -11.6542 -51.2548 -4.91759 
-1.28805 91.9988 15.8138 3.38671 2.89808 3.25708 -2.08861 4.78566 -1.57967 -42.596 53.8725 -17.57 -0.0024693 1.78318e-05 -60.0827 15.7025 -31.5622 -6.56874 -1.11162 -15.9884 -4.18778 72.0699 35.9172 10.0128 -0.000174347 -4.08209e-06 12.4266 7.84464 -27.653 -11.0822 -5.49466 -35.8153 -27.8203 -11.6464 27.9855 10.7201 5.34611 -43.8342 0.263937 -5.3271 9.23948 25.423 3.85607 8.31801 -10.4594 -14.0677 -49.7182 -6.59698 
-1.55107 91.3494 20.0169 3.0444 3.40292 4.04036 -2.03942 4.69835 -1.41329 -40.6491 53.4193 -19.0839 -0.00246902 1.7332e-05 -61.0026 16.2889 -31.4078 -7.23396 -1.18468 -17.2281 -4.54009 72.6917 35.2262 10.9978 -0.000174581 -4.12679e-06 9.15321 9.12993 -27.4493 -10.0025 -4.95776 -36.6766 -29.3048 -7.8867 21.3604 7.07465 5.76851 -45.6504 0.455846 -5.07182 12.3316 25.9545 4.36685 6.3665 -10.3622 -16.5862 -48.7425 -8.12296 
-1.8071 90.6556 24.1873 2.68256 3.79941 4.83949 -1.98482 4.66195 -1.21966 -38.7009 53.2372 -20.9852 -0.00246912 1.75187e-05 -60.66 16.2557 -31.9137 -7.59362 -1.31846 -18.2346 -4.99865 72.8473 35.0268 11.627 -0.000174692 -4.14307e-06 7.6236 10.0682 -27.3423 -9.80044 -5.01952 -37.1445 -30.0954 -4.79878 18.5605 3.28785 5.01854 -46.6396 0.484515 -4.01228 13.5891 26.1215 5.3462 8.37539 -10.8353 -19.5026 -47.9584 -9.17002 
-2.05153 90.0594 28.3376 2.32611 4.06397 5.65976 -1.69152 4.60687 -1.087 -36.8476 53.522 -23.2878 -0.00246963 1.83901e-05 -59.045 15.3639 -32.7176 -7.3048 -1.37271 -19.0777 -5.57946 72.6454 35.1177 11.6014 -0.000174646 -4.13675e-06 8.2508 10.2223 -27.413 -10.5463 -4.88093 -38.5718 -30.0123 -5.32271 21.3727 1.09975 1.08742 -46.78 -0.137976 -2.91907 14.4353 26.0084 6.73915 11.1727 -11.371 -21.1106 -46.5176 -9.14595 
-2.27748 89.5999 32.4607 1.93544 4.14143 6.42385 -1.15349 4.47862 -1.11442 -35.3981 54.4297 -25.1992 -0.00247039 1.96079e-05 -56.741 13.5769 -33.7332 -6.62814 -1.34244 -19.7498 -6.15077 72.3356 34.6578 12.058 -0.000174618 -4.13251e-06 8.64641 10.2887 -26.9299 -10.6935 -4.2432 -39.3788 -28.6345 -7.32495 26.0162 -0.279426 -4.28659 -44.806 -0.915923 -1.66828 14.4452 25.9708 8.76301 15.5568 -12.1592 -20.9923 -44.0727 -7.93497 
-2.47124 89.3298 36.5071 1.39168 3.96182 6.96237 -0.408241 4.35009 -1.24143 -34.9145 55.9543 -25.9793 -0.00247145 2.11347e-05 -53.7629 10.9885 -35.0252 -6.04482 -1.275 -20.053 -6.47905 72.0482 32.7691 12.4905 -0.000174559 -4.12313e-06 9.46377 10.7922 -24.818 -9.9573 -3.9185 -38.5686 -26.7515 -7.15337 29.9379 -2.0212 -7.30149 -41.1065 -0.937881 0.687745 13.1128 26.1521 10.6548 23.2194 -13.3738 -19.4171 -39.8174 -7.09331 
-2.60254 89.272 40.4306 0.548069 3.54856 7.17788 0.492636 4.34124 -1.31818 -35.6608 57.832 -25.4508 -0.00247291 2.2995e-05 -49.9719 7.70898 -36.3863 -5.59264 -0.956756 -19.8776 -6.3929 71.463 30.072 12.1433 -0.000174335 -4.07946e-06 12.5933 11.5514 -21.6286 -8.90408 -3.99712 -36.6629 -25.6963 -4.44526 32.9408 -3.79539 -7.28021 -37.6992 -0.47453 4.45358 10.2507 25.8999 12.0431 34.384 -16.6431 -14.6205 -34.2748 -4.71674 
-2.65878 89.3434 44.2521 -0.580178 3.07273 7.1654 1.34049 4.44032 -1.27575 -37.0243 59.7678 -24.0698 -0.00247462 2.48924e-05 -45.8746 4.01521 -37.3978 -4.93852 -0.0446156 -19.484 -6.00211 70.0542 28.5386 12.3938 -0.000174053 -4.00603e-06 16.5892 12.1035 -20.1656 -7.46062 -3.53989 -34.3405 -25.2532 -1.9441 35.0725 -4.93998 -7.35495 -37.5062 -0.292613 8.07959 5.96347 24.6166 14.675 47.1097 -20.4181 -9.1058 -28.7977 -1.67378 
-2.68162 89.4625 48.0913 -1.57559 2.7619 7.00265 1.81521 4.55839 -1.06063 -38.4623 61.6691 -22.4231 -0.00247639 2.65909e-05 -41.9492 0.412589 -37.8569 -4.1205 1.31134 -19.1618 -5.57783 67.523 29.2724 14.0419 -0.000173776 -3.91303e-06 20.5889 12.0771 -22.4012 -6.5037 -2.35503 -32.3159 -24.7532 -1.43113 37.0636 -5.23973 -6.7145 -39.7459 -0.354941 10.5553 0.42925 22.4856 19.4931 58.3811 -26.1596 -5.47421 -25.0661 1.99781 
-2.71984 89.7598 52.0319 -2.19344 2.67918 6.62988 1.82714 4.63369 -0.54762 -40.6273 63.1235 -19.7398 -0.00247757 2.76112e-05 -39.4413 -2.11422 -37.5942 -2.76503 2.36975 -18.9118 -5.16633 64.0732 31.4344 16.0023 -0.000173445 -3.7719e-06 25.5294 11.5186 -27.1394 -6.81865 -0.674428 -30.0595 -23.7672 -2.3095 38.0376 -5.00526 -5.43992 -42.6085 -0.457059 11.7029 -6.05021 21.0937 27.2585 67.1816 -32.0834 -4.61461 -24.9637 2.45057 
-2.78179 90.2984 56.0853 -2.34006 2.73274 5.94048 1.50222 4.72639 0.241005 -45.0273 63.2091 -15.1518 -0.00247826 2.81607e-05 -38.034 -3.79939 -36.4089 -2.59548 2.76281 -18.4307 -4.5744 60.3793 33.4081 17.3437 -0.000173075 -3.57176e-06 31.2972 10.5877 -31.2618 -7.80493 0.914934 -27.2438 -22.2571 -3.20948 37.6606 -4.84279 -4.07558 -45.0591 -0.468886 12.4236 -11.8596 21.4232 34.2612 71.6533 -37.6738 -4.67061 -27.5323 2.05156 
-2.83874 90.9528 60.2013 -2.13911 2.79016 4.80989 1.06023 4.85011 1.15553 -52.4345 61.3854 -8.16104 -0.00247873 2.85234e-05 -37.0807 -3.82757 -35.0132 -4.0393 2.80307 -17.615 -3.73041 57.3043 34.2184 17.9241 -0.000172736 -3.34216e-06 36.9123 9.46855 -32.6235 -9.01549 2.11493 -23.6738 -20.5931 -3.58638 36.0787 -4.62464 -2.95871 -47.0095 -0.413482 13.0505 -16.6948 23.2802 35.7163 72.3718 -39.1437 -5.16383 -30.7797 1.68659 
-2.85954 91.5638 64.3246 -1.78465 2.77874 3.51424 0.570566 4.93503 2.06035 -59.8125 58.1182 -1.30922 -0.00247945 2.90562e-05 -35.6404 -3.00543 -35.0071 -7.96717 2.91605 -16.6621 -2.82079 55.6048 33.8237 17.9403 -0.000172485 -3.13871e-06 41.3331 8.66542 -31.9194 -9.80575 2.86196 -19.713 -19.1964 -3.71658 33.9676 -4.22136 -2.46512 -48.6622 -0.417464 13.6328 -20.5629 25.6006 30.9748 70.2839 -35.879 -5.46015 -33.2995 1.44318 
-2.82618 92.0431 68.4219 -1.42435 2.68181 2.24313 0.0892494 5.01233 2.73318 -64.9503 54.8666 3.46731 -0.00248032 2.96578e-05 -33.9509 -1.83568 -37.866 -13.0131 3.1644 -15.7019 -1.98513 55.3779 32.9292 17.848 -0.000172336 -3.0006e-06 44.1232 8.86464 -31.48 -8.94805 3.20494 -15.5163 -18.1744 -3.60938 31.6249 -3.65896 -2.67134 -50.1782 -0.559548 14.2411 -23.5159 27.4297 22.8818 66.0401 -29.7113 -4.26183 -34.832 1.29861 
-2.69999 92.3254 72.4648 -1.13057 2.49312 0.902235 -0.123468 5.21173 2.69602 -68.0135 52.5458 6.21084 -0.00248103 3.01264e-05 -32.5819 -0.48765 -43.979 -16.6368 3.20358 -14.6225 -0.89811 55.8939 32.0489 18.2619 -0.000172256 -2.9207e-06 45.6749 10.3919 -32.223 -6.5085 3.20419 -11.1275 -17.2813 -3.10379 29.1195 -2.95054 -3.0944 -51.5714 -0.758637 14.3002 -25.7161 28.5374 16.7444 59.4899 -24.1548 -2.54018 -35.8285 1.18 
-2.42315 92.3703 76.433 -0.870083 2.22312 -1.10917 0.138671 5.5481 1.50083 -70.1504 51.2541 7.8399 -0.00248126 3.02688e-05 -32.1555 1.73309 -52.402 -15.9732 2.81468 -13.1232 1.14048 55.7332 31.7111 19.8201 -0.000172189 -2.8511e-06 46.9937 12.421 -32.6997 -4.87657 2.78222 -6.8847 -16.1352 -2.27119 26.9794 -1.66088 -2.6683 -52.426 -0.726832 14.0293 -27.0288 29.6227 13.4607 51.0964 -20.293 -2.68266 -36.624 0.963479 
-1.97009 92.2119 80.324 -0.53541 1.91408 -4.69423 0.624811 5.81591 -0.722707 -72.2466 51.2538 9.21532 -0.0024813 3.02957e-05 -32.0746 6.12946 -60.768 -9.78549 2.58369 -10.8212 4.22991 53.8452 32.4694 22.1383 -0.000172062 -2.70785e-06 49.6234 13.3441 -31.7162 -6.26809 1.5737 -2.99942 -14.6392 -1.23243 25.3413 0.870905 -1.84919 -53.0287 -0.551744 14.0415 -27.2308 31.9789 12.1243 41.7918 -17.9377 -5.40734 -37.0535 -0.0313607 
-1.27901 91.8922 84.1574 -0.151933 1.62083 -10.5206 0.950897 5.75563 -3.25573 -74.8312 52.9643 11.0612 -0.00248162 3.04927e-05 -31.4748 11.7852 -66.0532 -1.24464 3.27604 -7.46408 6.94031 50.6919 34.2237 23.3997 -0.000171816 -2.38868e-06 55.1484 12.1483 -30.7427 -10.8624 -0.716354 0.314045 -13.0383 -0.355239 24.0623 5.36742 -1.68959 -53.942 -0.524806 14.9888 -26.3515 35.5849 11.0136 33.0275 -15.8819 -7.997 -36.7503 -0.99183 
-0.454879 91.4649 87.9547 -0.0113444 1.38684 -18.6386 0.970222 5.30595 -5.38669 -77.8298 55.484 14.0159 -0.00248193 3.06781e-05 -30.9012 13.4756 -66.1484 3.316 4.90307 -3.1317 7.08553 48.1536 36.2427 21.7402 -0.000171508 -1.86975e-06 63.429 8.38162 -32.426 -17.9548 -3.61814 2.56249 -11.478 -0.371588 23.1435 9.98607 0.976638 -54.9115 2.90129 17.7805 -24.1726 38.6942 8.89914 26.7805 -13.1006 -7.99025 -36.0856 0.0774698 
0.424788 90.9251 91.739 -0.481152 1.2434 -28.3575 0.722436 4.68574 -6.61833 -79.9322 56.5371 17.6255 -0.00248178 3.05881e-05 -31.1809 10.316 -61.4097 4.11211 7.20818 1.3591 3.44586 48.0874 36.7405 16.0373 -0.000171268 -1.28341e-06 72.1194 3.45119 -36.2004 -25.7829 -6.28202 3.54321 -9.57057 -1.73069 22.7885 10.717 10.658 -54.9158 14.3062 21.6686 -20.9573 40.2706 7.70984 24.4458 -8.41929 -8.29489 -35.0416 0.852781 
1.39431 90.2943 95.5184 -1.55552 1.18878 -38.3445 0.0280312 4.24529 -6.72109 -79.288 54.9638 20.5442 -0.00248114 3.01953e-05 -32.3761 7.15543 -54.8817 6.17205 9.47253 4.8481 -3.5822 50.357 33.634 6.26464 -0.000171143 -7.99248e-07 78.9768 2.4011 -36.6362 -29.6855 -8.28775 3.27765 -7.32317 -4.43298 23.281 11.7899 18.2767 -53.5406 21.8117 25.6093 -16.9212 41.262 7.48047 26.1738 -4.18879 -10.8813 -33.6684 0.924554 
